<svg xmlns="http://www.w3.org/2000/svg" viewBox="0 0 200 200"><rect width="200" height="200" fill="#0f0f1a" rx="20"/><rect x="30" y="80" width="140" height="80" fill="#1a1a2e" rx="10"/><rect x="40" y="95" width="20" height="15" fill="#374151" rx="2"/><rect x="65" y="95" width="20" height="15" fill="#8b5cf6" rx="2"/><rect x="90" y="95" width="20" height="15" fill="#374151" rx="2"/><rect x="115" y="95" width="20" height="15" fill="#374151" rx="2"/><rect x="140" y="95" width="20" height="15" fill="#374151" rx="2"/><rect x="40" y="115" width="20" height="15" fill="#374151" rx="2"/><rect x="65" y="115" width="20" height="15" fill="#374151" rx="2"/><rect x="90" y="115" width="20" height="15" fill="#374151" rx="2"/><rect x="115" y="115" width="20" height="15" fill="#22c55e" rx="2"/><rect x="140" y="115" width="20" height="15" fill="#374151" rx="2"/><rect x="55" y="135" width="90" height="15" fill="#374151" rx="2"/><text x="100" y="60" font-size="28" text-anchor="middle" fill="#8b5cf6" font-weight="bold">WPM</text></svg>