<svg xmlns="http://www.w3.org/2000/svg" viewBox="0 0 200 200"><rect width="200" height="200" fill="#8b4513" rx="20"/><rect x="40" y="40" width="30" height="30" fill="#f5deb3"/><rect x="70" y="40" width="30" height="30" fill="#8b4513"/><rect x="100" y="40" width="30" height="30" fill="#f5deb3"/><rect x="130" y="40" width="30" height="30" fill="#8b4513"/><rect x="40" y="70" width="30" height="30" fill="#8b4513"/><rect x="70" y="70" width="30" height="30" fill="#f5deb3"/><rect x="100" y="70" width="30" height="30" fill="#8b4513"/><rect x="130" y="70" width="30" height="30" fill="#f5deb3"/><rect x="40" y="100" width="30" height="30" fill="#f5deb3"/><rect x="70" y="100" width="30" height="30" fill="#8b4513"/><rect x="100" y="100" width="30" height="30" fill="#f5deb3"/><rect x="130" y="100" width="30" height="30" fill="#8b4513"/><rect x="40" y="130" width="30" height="30" fill="#8b4513"/><rect x="70" y="130" width="30" height="30" fill="#f5deb3"/><rect x="100" y="130" width="30" height="30" fill="#8b4513"/><rect x="130" y="130" width="30" height="30" fill="#f5deb3"/><circle cx="85" cy="55" r="12" fill="#1a1a1a"/><circle cx="145" cy="55" r="12" fill="#1a1a1a"/><circle cx="55" cy="145" r="12" fill="#dc2626"/><circle cx="115" cy="145" r="12" fill="#dc2626"/></svg>