<svg xmlns="http://www.w3.org/2000/svg" viewBox="0 0 200 200"><rect width="200" height="200" fill="#0f0f1a" rx="20"/><rect x="30" y="30" width="140" height="140" fill="#1e3a5f" rx="8"/><rect x="40" y="40" width="20" height="20" fill="#ef4444" rx="2"/><text x="50" y="55" font-size="10" text-anchor="middle">ЁЯТе</text><rect x="65" y="40" width="20" height="20" fill="#1e40af" rx="2"/><rect x="90" y="40" width="20" height="20" fill="#475569" rx="2"/><rect x="115" y="40" width="20" height="20" fill="#475569" rx="2"/><rect x="140" y="40" width="20" height="20" fill="#1e40af" rx="2"/><rect x="40" y="65" width="20" height="20" fill="#1e40af" rx="2"/><rect x="65" y="65" width="20" height="20" fill="#ef4444" rx="2"/><text x="75" y="80" font-size="10" text-anchor="middle">ЁЯТе</text><rect x="90" y="65" width="20" height="20" fill="#1e3a5f" rx="2"/><rect x="115" y="65" width="20" height="20" fill="#1e3a5f" rx="2"/><rect x="140" y="65" width="20" height="20" fill="#475569" rx="2"/><text x="100" y="180" font-size="14" text-anchor="middle" fill="#06b6d4" font-weight="bold">BATTLESHIP</text></svg>