<svg xmlns="http://www.w3.org/2000/svg" viewBox="0 0 200 200"><rect width="200" height="200" fill="#0f0f1a" rx="20"/><rect x="40" y="40" width="30" height="30" fill="#1f2937" rx="3"/><rect x="75" y="40" width="30" height="30" fill="#374151" rx="3"/><rect x="110" y="40" width="30" height="30" fill="#1f2937" rx="3"/><rect x="40" y="75" width="30" height="30" fill="#374151" rx="3"/><rect x="75" y="75" width="30" height="30" fill="#ef4444" rx="3"/><rect x="110" y="75" width="30" height="30" fill="#374151" rx="3"/><rect x="40" y="110" width="30" height="30" fill="#1f2937" rx="3"/><rect x="75" y="110" width="30" height="30" fill="#1f2937" rx="3"/><rect x="110" y="110" width="30" height="30" fill="#1f2937" rx="3"/><text x="55" y="62" font-size="14" fill="#3b82f6" font-weight="bold">1</text><text x="125" y="62" font-size="14" fill="#22c55e" font-weight="bold">2</text><text x="90" y="97" font-size="16">💣</text><text x="125" y="97" font-size="14">🚩</text><text x="55" y="132" font-size="14" fill="#3b82f6" font-weight="bold">1</text><text x="90" y="132" font-size="14" fill="#22c55e" font-weight="bold">2</text><text x="125" y="132" font-size="14" fill="#3b82f6" font-weight="bold">1</text></svg>